<svg id="visual" viewBox="0 0 1920 1080" width="1920" height="1080" xmlns="http://www.w3.org/2000/svg" xmlns:xlink="http://www.w3.org/1999/xlink" version="1.1"><rect x="0" y="0" width="1920" height="1080" fill="#16123F"></rect><path d="M0 750L22.8 749.2C45.7 748.3 91.3 746.7 137 719.3C182.7 692 228.3 639 274 632.2C319.7 625.3 365.3 664.7 411.2 657.8C457 651 503 598 548.8 582.7C594.7 567.3 640.3 589.7 686 600C731.7 610.3 777.3 608.7 823 604.8C868.7 601 914.3 595 960 603.2C1005.7 611.3 1051.3 633.7 1097 652.3C1142.7 671 1188.3 686 1234 686.5C1279.7 687 1325.3 673 1371.2 655.2C1417 637.3 1463 615.7 1508.8 602C1554.7 588.3 1600.3 582.7 1646 597.3C1691.7 612 1737.3 647 1783 679.2C1828.7 711.3 1874.3 740.7 1897.2 755.3L1920 770L1920 1081L1897.2 1081C1874.3 1081 1828.7 1081 1783 1081C1737.3 1081 1691.7 1081 1646 1081C1600.3 1081 1554.7 1081 1508.8 1081C1463 1081 1417 1081 1371.2 1081C1325.3 1081 1279.7 1081 1234 1081C1188.3 1081 1142.7 1081 1097 1081C1051.3 1081 1005.7 1081 960 1081C914.3 1081 868.7 1081 823 1081C777.3 1081 731.7 1081 686 1081C640.3 1081 594.7 1081 548.8 1081C503 1081 457 1081 411.2 1081C365.3 1081 319.7 1081 274 1081C228.3 1081 182.7 1081 137 1081C91.3 1081 45.7 1081 22.8 1081L0 1081Z" fill="#75c9b7"></path><path d="M0 648L22.8 644.3C45.7 640.7 91.3 633.3 137 638.5C182.7 643.7 228.3 661.3 274 687.2C319.7 713 365.3 747 411.2 755C457 763 503 745 548.8 750.8C594.7 756.7 640.3 786.3 686 789C731.7 791.7 777.3 767.3 823 770.3C868.7 773.3 914.3 803.7 960 819.8C1005.7 836 1051.3 838 1097 836.5C1142.7 835 1188.3 830 1234 796.2C1279.7 762.3 1325.3 699.7 1371.2 696.3C1417 693 1463 749 1508.8 779C1554.7 809 1600.3 813 1646 819C1691.7 825 1737.3 833 1783 833.7C1828.7 834.3 1874.3 827.7 1897.2 824.3L1920 821L1920 1081L1897.2 1081C1874.3 1081 1828.7 1081 1783 1081C1737.3 1081 1691.7 1081 1646 1081C1600.3 1081 1554.7 1081 1508.8 1081C1463 1081 1417 1081 1371.2 1081C1325.3 1081 1279.7 1081 1234 1081C1188.3 1081 1142.7 1081 1097 1081C1051.3 1081 1005.7 1081 960 1081C914.3 1081 868.7 1081 823 1081C777.3 1081 731.7 1081 686 1081C640.3 1081 594.7 1081 548.8 1081C503 1081 457 1081 411.2 1081C365.3 1081 319.7 1081 274 1081C228.3 1081 182.7 1081 137 1081C91.3 1081 45.7 1081 22.8 1081L0 1081Z" fill="#93d2a4"></path><path d="M0 855L22.8 838.7C45.7 822.3 91.3 789.7 137 790.3C182.7 791 228.3 825 274 822.5C319.7 820 365.3 781 411.2 761.5C457 742 503 742 548.8 755.7C594.7 769.3 640.3 796.7 686 819.3C731.7 842 777.3 860 823 845.7C868.7 831.3 914.3 784.7 960 762.7C1005.7 740.7 1051.3 743.3 1097 766.3C1142.7 789.3 1188.3 832.7 1234 833C1279.7 833.3 1325.3 790.7 1371.2 795.2C1417 799.7 1463 851.3 1508.8 866.5C1554.7 881.7 1600.3 860.3 1646 835C1691.7 809.7 1737.3 780.3 1783 775.2C1828.7 770 1874.3 789 1897.2 798.5L1920 808L1920 1081L1897.2 1081C1874.3 1081 1828.7 1081 1783 1081C1737.3 1081 1691.7 1081 1646 1081C1600.3 1081 1554.7 1081 1508.8 1081C1463 1081 1417 1081 1371.2 1081C1325.3 1081 1279.7 1081 1234 1081C1188.3 1081 1142.7 1081 1097 1081C1051.3 1081 1005.7 1081 960 1081C914.3 1081 868.7 1081 823 1081C777.3 1081 731.7 1081 686 1081C640.3 1081 594.7 1081 548.8 1081C503 1081 457 1081 411.2 1081C365.3 1081 319.7 1081 274 1081C228.3 1081 182.7 1081 137 1081C91.3 1081 45.7 1081 22.8 1081L0 1081Z" fill="#abd699"></path><path d="M0 878L22.8 870.5C45.7 863 91.3 848 137 862.8C182.7 877.7 228.3 922.3 274 942.8C319.7 963.3 365.3 959.7 411.2 951.7C457 943.7 503 931.3 548.8 933.7C594.7 936 640.3 953 686 935.2C731.7 917.3 777.3 864.7 823 847C868.7 829.3 914.3 846.7 960 870.7C1005.7 894.7 1051.3 925.3 1097 927.7C1142.7 930 1188.3 904 1234 904.5C1279.7 905 1325.3 932 1371.2 936C1417 940 1463 921 1508.8 909.8C1554.7 898.7 1600.3 895.3 1646 900.2C1691.7 905 1737.3 918 1783 917.7C1828.7 917.3 1874.3 903.7 1897.2 896.8L1920 890L1920 1081L1897.2 1081C1874.3 1081 1828.7 1081 1783 1081C1737.3 1081 1691.7 1081 1646 1081C1600.3 1081 1554.7 1081 1508.8 1081C1463 1081 1417 1081 1371.2 1081C1325.3 1081 1279.7 1081 1234 1081C1188.3 1081 1142.7 1081 1097 1081C1051.3 1081 1005.7 1081 960 1081C914.3 1081 868.7 1081 823 1081C777.3 1081 731.7 1081 686 1081C640.3 1081 594.7 1081 548.8 1081C503 1081 457 1081 411.2 1081C365.3 1081 319.7 1081 274 1081C228.3 1081 182.7 1081 137 1081C91.3 1081 45.7 1081 22.8 1081L0 1081Z" fill="#93d2a4"></path><path d="M0 954L22.8 953.3C45.7 952.7 91.3 951.3 137 964.3C182.7 977.3 228.3 1004.7 274 1001.8C319.7 999 365.3 966 411.2 958.3C457 950.7 503 968.3 548.8 976.7C594.7 985 640.3 984 686 985.5C731.7 987 777.3 991 823 989.2C868.7 987.3 914.3 979.7 960 973.2C1005.7 966.7 1051.3 961.3 1097 966.3C1142.7 971.3 1188.3 986.7 1234 979.8C1279.7 973 1325.3 944 1371.2 943.8C1417 943.7 1463 972.3 1508.8 974.5C1554.7 976.7 1600.3 952.3 1646 937.7C1691.7 923 1737.3 918 1783 923C1828.7 928 1874.3 943 1897.2 950.5L1920 958L1920 1081L1897.2 1081C1874.3 1081 1828.7 1081 1783 1081C1737.3 1081 1691.7 1081 1646 1081C1600.3 1081 1554.7 1081 1508.8 1081C1463 1081 1417 1081 1371.2 1081C1325.3 1081 1279.7 1081 1234 1081C1188.3 1081 1142.7 1081 1097 1081C1051.3 1081 1005.7 1081 960 1081C914.3 1081 868.7 1081 823 1081C777.3 1081 731.7 1081 686 1081C640.3 1081 594.7 1081 548.8 1081C503 1081 457 1081 411.2 1081C365.3 1081 319.7 1081 274 1081C228.3 1081 182.7 1081 137 1081C91.3 1081 45.7 1081 22.8 1081L0 1081Z" fill="#75c9b7"></path></svg>